<?xml version="1.0" encoding="utf-8"?>
<!-- Generator: Adobe Illustrator 21.1.0, SVG Export Plug-In . SVG Version: 6.00 Build 0)  -->
<svg fill="white" version="1.1" xmlns="http://www.w3.org/2000/svg" xmlns:xlink="http://www.w3.org/1999/xlink" x="0px" y="0px"
	 viewBox="0 0 346.5 346.3" style="enable-background:new 0 0 346.5 346.3;" xml:space="preserve">
	<g>
		<path d="M144.6,86.6c-0.4-0.7-1.2-1.2-2-1.2l-68-0.1h0c-0.8,0-1.6,0.4-2,1.1c-0.4,0.7-0.4,1.6,0,2.3l49.2,85.6
			l49.2,85.6c0.4,0.7,1.2,1.2,2,1.2h0c0.8,0,1.6-0.4,2-1.2l34.2-58.9c0.4-0.7,0.4-1.6,0-2.3L144.6,86.6z"/>
		<path d="M273.9,86.6c-0.4-0.7-1.2-1.2-2-1.2l-71.5-0.1h0c-1.1,0-2,0.7-2.3,1.7c-0.3,1,0.2,2.1,1.1,2.6l34.1,20.4
			l0.5,39.4c0,1.1,0.7,2,1.7,2.2c0.2,0.1,0.4,0.1,0.6,0.1c0.8,0,1.6-0.4,2-1.2l35.8-61.7C274.3,88.2,274.3,87.3,273.9,86.6z"/>
	</g>
</svg>
