<?xml version="1.0" encoding="iso-8859-1"?>
<!-- Generator: Adobe Illustrator 19.0.0, SVG Export Plug-In . SVG Version: 6.00 Build 0)  -->
<svg xmlns="http://www.w3.org/2000/svg" xmlns:xlink="http://www.w3.org/1999/xlink" version="1.1" id="Layer_1" x="0px" y="0px" viewBox="0 0 512 512" style="enable-background:new 0 0 512 512;" xml:space="preserve" width="512px" height="512px">
<g transform="translate(1 1)">
	<g>
		<g>
			<path d="M472.6,16.067H37.4c-21.333,0-38.4,17.067-38.4,38.4v260.267v38.4c0,21.333,17.067,38.4,38.4,38.4h163.84l-12.8,51.2     h-1.707c-23.893,0-42.667,18.773-42.667,42.667c0,5.12,3.413,8.533,8.533,8.533h204.8c5.12,0,8.533-3.413,8.533-8.533     c0-23.893-18.773-42.667-42.667-42.667h-1.707l-12.8-51.2H472.6c21.333,0,38.4-17.067,38.4-38.4v-38.4V54.467     C511,33.133,493.933,16.067,472.6,16.067z M16.067,54.467c0-11.947,9.387-21.333,21.333-21.333h435.2     c11.947,0,21.333,9.387,21.333,21.333V306.2H16.067V54.467z M348.013,476.867H162.84c3.413-10.24,12.8-17.067,23.893-17.067     h8.533h119.467h9.387C335.213,459.8,344.6,466.627,348.013,476.867z M303.64,442.733h-97.28l12.8-51.2h71.68L303.64,442.733z      M493.933,353.133c0,11.947-9.387,21.333-21.333,21.333H297.667h-85.333H37.4c-11.947,0-21.333-9.387-21.333-21.333v-29.867     h477.867V353.133z" fill="#1A287F"/>
			<path d="M425.667,263.533h-128c-5.12,0-8.533,3.413-8.533,8.533s3.413,8.533,8.533,8.533h128c5.12,0,8.533-3.413,8.533-8.533     S430.787,263.533,425.667,263.533z" fill="#1A287F"/>
			<path d="M178.2,220.867c0-5.12-3.413-8.533-8.533-8.533H84.333c-5.12,0-8.533,3.413-8.533,8.533c0,5.12,3.413,8.533,8.533,8.533     h85.333C174.787,229.4,178.2,225.987,178.2,220.867z" fill="#1A287F"/>
			<path d="M255,229.4h128c5.12,0,8.533-3.413,8.533-8.533c0-5.12-3.413-8.533-8.533-8.533H255c-5.12,0-8.533,3.413-8.533,8.533     C246.467,225.987,249.88,229.4,255,229.4z" fill="#1A287F"/>
			<path d="M255,263.533H127c-5.12,0-8.533,3.413-8.533,8.533S121.88,280.6,127,280.6h128c5.12,0,8.533-3.413,8.533-8.533     S260.12,263.533,255,263.533z" fill="#1A287F"/>
			<path d="M425.667,109.933h-128c-5.12,0-8.533,3.413-8.533,8.533s3.413,8.533,8.533,8.533h128c5.12,0,8.533-3.413,8.533-8.533     S430.787,109.933,425.667,109.933z" fill="#1A287F"/>
			<path d="M425.667,161.133h-85.333c-5.12,0-8.533,3.413-8.533,8.533c0,5.12,3.413,8.533,8.533,8.533h85.333     c5.12,0,8.533-3.413,8.533-8.533C434.2,164.547,430.787,161.133,425.667,161.133z" fill="#1A287F"/>
			<path d="M255,178.2h17.067c5.12,0,8.533-3.413,8.533-8.533c0-5.12-3.413-8.533-8.533-8.533H255c-5.12,0-8.533,3.413-8.533,8.533     C246.467,174.787,249.88,178.2,255,178.2z" fill="#1A287F"/>
			<path d="M255,75.8h128c5.12,0,8.533-3.413,8.533-8.533s-3.413-8.533-8.533-8.533H255c-5.12,0-8.533,3.413-8.533,8.533     S249.88,75.8,255,75.8z" fill="#1A287F"/>
			<path d="M212.333,50.2H75.8v136.533h136.533V50.2z M195.267,169.667h-102.4v-102.4h102.4V169.667z" fill="#1A287F"/>
		</g>
	</g>
</g>
<g>
</g>
<g>
</g>
<g>
</g>
<g>
</g>
<g>
</g>
<g>
</g>
<g>
</g>
<g>
</g>
<g>
</g>
<g>
</g>
<g>
</g>
<g>
</g>
<g>
</g>
<g>
</g>
<g>
</g>
</svg>
