<?xml version="1.0" encoding="iso-8859-1"?>
<!-- Generator: Adobe Illustrator 18.0.0, SVG Export Plug-In . SVG Version: 6.00 Build 0)  -->
<!DOCTYPE svg PUBLIC "-//W3C//DTD SVG 1.1//EN" "http://www.w3.org/Graphics/SVG/1.1/DTD/svg11.dtd">
<svg xmlns="http://www.w3.org/2000/svg" xmlns:xlink="http://www.w3.org/1999/xlink" version="1.1" id="Capa_1" x="0px" y="0px" viewBox="0 0 60 60" style="enable-background:new 0 0 60 60;" xml:space="preserve" width="512px" height="512px">
<path d="M54,2H6C2.748,2,0,4.748,0,8v33c0,3.252,2.748,6,6,6h8v10c0,0.413,0.254,0.784,0.639,0.933C14.757,57.979,14.879,58,15,58  c0.276,0,0.547-0.114,0.74-0.327L25.442,47H54c3.252,0,6-2.748,6-6V8C60,4.748,57.252,2,54,2z M50.887,13.463l-12,23  c-0.134,0.257-0.374,0.443-0.657,0.511C38.154,36.991,38.077,37,38,37c-0.208,0-0.414-0.065-0.585-0.189L20.139,24.334L10.74,34.673  c-0.336,0.368-0.894,0.433-1.305,0.152C9.023,34.543,8.882,34,9.105,33.553l10-20c0.131-0.263,0.371-0.454,0.656-0.523  c0.286-0.07,0.586-0.011,0.824,0.16L37.839,25.65L49.241,12.35c0.331-0.386,0.897-0.464,1.32-0.178  C50.981,12.456,51.122,13.012,50.887,13.463z" fill="#FFFFFF"/>
<g>
</g>
<g>
</g>
<g>
</g>
<g>
</g>
<g>
</g>
<g>
</g>
<g>
</g>
<g>
</g>
<g>
</g>
<g>
</g>
<g>
</g>
<g>
</g>
<g>
</g>
<g>
</g>
<g>
</g>
</svg>
