<?xml version="1.0" encoding="iso-8859-1"?>
<!-- Generator: Adobe Illustrator 18.0.0, SVG Export Plug-In . SVG Version: 6.00 Build 0)  -->
<!DOCTYPE svg PUBLIC "-//W3C//DTD SVG 1.1//EN" "http://www.w3.org/Graphics/SVG/1.1/DTD/svg11.dtd">
<svg xmlns="http://www.w3.org/2000/svg" xmlns:xlink="http://www.w3.org/1999/xlink" version="1.1" id="Capa_1" x="0px" y="0px" viewBox="0 0 428.232 428.232" style="enable-background:new 0 0 428.232 428.232;" xml:space="preserve" width="512px" height="512px">
<g>
	<g>
		<path d="M214.116,149.691c-18.086,0-32.801,14.713-32.801,32.799c0,18.085,14.715,32.799,32.801,32.799    c18.086,0,32.799-14.713,32.799-32.799C246.915,164.405,232.202,149.691,214.116,149.691z M214.116,200.29    c-9.815,0-17.801-7.984-17.801-17.799c0-9.815,7.986-17.799,17.801-17.799c9.814,0,17.799,7.984,17.799,17.799    C231.915,192.305,223.93,200.29,214.116,200.29z" fill="#012168"/>
		<path d="M407.52,413.232h-26.281v-90.572c0-2.914-1.689-5.566-4.332-6.797l-47.768-22.268v-29.936c0-2.84-1.605-5.438-4.146-6.708    l-46.453-23.225v-75.481c0-1.712-0.586-3.373-1.66-4.707l-55.264-68.569V39.246h15.055c4.143,0,7.5-3.358,7.5-7.5    c0-4.142-3.357-7.5-7.5-7.5h-15.055V7.5c0-4.142-3.357-7.5-7.5-7.5c-4.143,0-7.5,3.358-7.5,7.5v16.746h-15.057    c-4.143,0-7.5,3.358-7.5,7.5c0,4.142,3.357,7.5,7.5,7.5h15.057v45.724l-55.264,68.569c-1.074,1.333-1.66,2.994-1.66,4.707v75.481    l-46.453,23.225c-2.541,1.27-4.146,3.868-4.146,6.708v29.936l-47.771,22.268c-2.641,1.23-4.33,3.883-4.33,6.797v90.572H20.711    c-4.143,0-7.5,3.357-7.5,7.5s3.357,7.5,7.5,7.5H407.52c4.143,0,7.5-3.357,7.5-7.5S411.663,413.232,407.52,413.232z     M366.239,413.232h-37.1V310.146l37.1,17.293V413.232z M99.092,413.232H61.991v-85.793l37.102-17.293V413.232z M196.315,413.232    v-68.393c0-4.449,7.613-9.426,17.801-9.426c10.187,0,17.799,4.977,17.799,9.426v68.393H196.315z M314.139,413.232h-67.225v-68.393    c0-13.695-14.406-24.426-32.799-24.426c-18.393,0-32.801,10.73-32.801,24.426v68.393h-67.223V268.296l46.453-23.227    c2.541-1.27,4.146-3.868,4.146-6.708v-77.47l49.424-61.323l49.424,61.323v77.47c0,2.841,1.605,5.438,4.146,6.708l46.453,23.227    V413.232z" fill="#012168"/>
	</g>
</g>
<g>
</g>
<g>
</g>
<g>
</g>
<g>
</g>
<g>
</g>
<g>
</g>
<g>
</g>
<g>
</g>
<g>
</g>
<g>
</g>
<g>
</g>
<g>
</g>
<g>
</g>
<g>
</g>
<g>
</g>
</svg>
